<?xml version="1.0" encoding="UTF-8"?>
<svg version="1.1" xmlns="http://www.w3.org/2000/svg" width="512" height="512">
<path d="M0 0 C1.16061447 -0.00570007 2.32122894 -0.01140015 3.51701355 -0.01727295 C5.96860861 -0.02668363 8.4202161 -0.03324121 10.87182617 -0.03710938 C14.55606262 -0.04674577 18.23972387 -0.07777933 21.92382812 -0.109375 C35.83009709 -0.17243892 49.14048994 0.50000827 62.79296875 3.203125 C63.9523999 3.42758301 65.11183105 3.65204102 66.30639648 3.88330078 C69.25656596 4.49624455 72.17988839 5.16999776 75.10546875 5.890625 C76.14759521 6.14626221 77.18972168 6.40189941 78.26342773 6.6652832 C116.86642563 16.44649746 151.99662113 34.84635577 181.79296875 61.203125 C183.06333984 62.30720703 183.06333984 62.30720703 184.359375 63.43359375 C190.98825666 69.27509621 197.21615747 75.50684331 203.40527344 81.80712891 C204.63975561 83.04899538 205.90575078 84.25935581 207.17578125 85.46484375 C208.79296875 87.203125 208.79296875 87.203125 208.79296875 89.203125 C209.45296875 89.203125 210.11296875 89.203125 210.79296875 89.203125 C212.08203125 90.6640625 212.08203125 90.6640625 213.41796875 92.578125 C213.86398437 93.20460938 214.31 93.83109375 214.76953125 94.4765625 C215.79296875 96.203125 215.79296875 96.203125 215.79296875 98.203125 C216.45296875 98.203125 217.11296875 98.203125 217.79296875 98.203125 C219.08642578 99.7409668 219.08642578 99.7409668 220.55078125 101.90234375 C221.35926514 103.08739502 221.35926514 103.08739502 222.18408203 104.29638672 C222.75626465 105.15248535 223.32844727 106.00858398 223.91796875 106.890625 C224.50690918 107.76477051 225.09584961 108.63891602 225.70263672 109.53955078 C227.41044433 112.08695621 229.10507573 114.64249077 230.79296875 117.203125 C231.19386719 117.80946777 231.59476562 118.41581055 232.0078125 119.04052734 C241.62740895 133.72856212 249.90597227 149.66098572 255.79296875 166.203125 C256.20192383 167.32195068 256.20192383 167.32195068 256.61914062 168.46337891 C260.45736809 179.03560121 263.55899882 189.68431144 266.10546875 200.640625 C266.3478125 201.68130127 266.59015625 202.72197754 266.83984375 203.79418945 C269.57064643 216.00855298 271.10384255 228.00036521 271.09375 240.51953125 C271.10017769 242.34616554 271.10017769 242.34616554 271.10673523 244.20970154 C271.11243465 246.76845687 271.11301154 249.32722838 271.10864258 251.88598633 C271.10549607 255.73222576 271.12895283 259.57768405 271.15429688 263.42382812 C271.20318835 282.53300387 269.90870234 300.85373495 264.38183594 319.21875 C263.73327945 321.40426707 263.12603213 323.59932922 262.51953125 325.796875 C251.9578522 363.3594884 232.5947427 397.09620235 206.79296875 426.203125 C205.99761719 427.110625 205.20226562 428.018125 204.3828125 428.953125 C162.95782157 475.71149218 101.33593801 507.52601908 38.79296875 512.203125 C35.23940877 512.35741013 31.68941203 512.41180971 28.1328125 512.44140625 C27.1529689 512.4512001 26.17312531 512.46099396 25.16358948 512.47108459 C4.71974145 512.63355641 -15.17570525 512.7802311 -35.20703125 508.203125 C-36.21475586 507.98350098 -37.22248047 507.76387695 -38.26074219 507.53759766 C-77.04253761 498.97797927 -113.24172527 482.19685478 -144.20703125 457.203125 C-144.77083496 456.75356445 -145.33463867 456.30400391 -145.91552734 455.84082031 C-153.93080694 449.39967913 -161.28660572 442.31737013 -168.58203125 435.078125 C-169.83064941 433.84352539 -169.83064941 433.84352539 -171.10449219 432.58398438 C-176.56986092 427.09016158 -181.49163932 421.34891825 -186.20703125 415.203125 C-186.78710938 414.45675781 -187.3671875 413.71039063 -187.96484375 412.94140625 C-200.41638734 396.79733593 -210.52902254 379.6316529 -219.20703125 361.203125 C-219.50561035 360.5740625 -219.80418945 359.945 -220.11181641 359.296875 C-227.00308882 344.63555212 -232.13656628 329.31353584 -235.95703125 313.578125 C-236.23667725 312.43694214 -236.23667725 312.43694214 -236.52197266 311.27270508 C-237.14074292 308.59201469 -237.68028567 305.9034971 -238.20703125 303.203125 C-238.46887207 301.92550293 -238.73071289 300.64788086 -239.00048828 299.33154297 C-241.52861264 286.03729214 -241.66668135 272.85058238 -241.59814453 259.35058594 C-241.58202691 255.57710801 -241.59809508 251.80469613 -241.6171875 248.03125 C-241.62790708 235.04797805 -241.04924659 222.88557748 -238.20703125 210.203125 C-237.76271416 207.74601463 -237.32434941 205.28781306 -236.89453125 202.828125 C-225.76265288 148.53881049 -193.92374885 95.61216152 -151.20703125 60.203125 C-150.22347656 59.38199219 -149.23992187 58.56085937 -148.2265625 57.71484375 C-107.05946237 24.04334441 -53.79309224 0.20899657 0 0 Z " fill="#4F9DFB" transform="translate(241.20703125,-0.203125)"/>
<path d="M0 0 C1.09511398 -0.01606293 2.19022797 -0.03212585 3.31852722 -0.04867554 C8.33181088 -0.0932229 13.34496299 -0.13419918 18.35839844 -0.15722656 C20.99943868 -0.1737726 23.64043439 -0.20104429 26.28125 -0.23925781 C30.09439265 -0.29413691 33.90648583 -0.31592009 37.7199707 -0.33056641 C38.8942009 -0.35323578 40.06843109 -0.37590515 41.27824402 -0.39926147 C49.52984637 -0.37809134 54.42840455 1.21519384 60.42295837 6.86907959 C68.27902286 14.92213714 69.48643091 28.22491956 72.08325195 38.81787109 C75.33019474 52.00507583 78.59269759 65.18000414 82.3840332 78.22412109 C82.77751953 79.59310547 82.77751953 79.59310547 83.17895508 80.98974609 C83.70831037 82.8259058 84.24774113 84.65918461 84.79614258 86.48974609 C86.50538977 92.51731807 87.36135246 97.39650209 84.6730957 103.34521484 C84.31344727 103.93431641 83.95379883 104.52341797 83.58325195 105.13037109 C81.29143491 109.48650864 80.93348012 112.2861096 81.64575195 117.19287109 C82.77975749 118.88638053 82.77975749 118.88638053 84.20825195 120.38037109 C85.41481445 121.77255859 85.41481445 121.77255859 86.64575195 123.19287109 C86.12969757 128.98086956 83.09681162 134.23025 80.70825195 139.44287109 C80.25256836 140.46123047 79.79688477 141.47958984 79.32739258 142.52880859 C78.88717773 143.49560547 78.44696289 144.46240234 77.9934082 145.45849609 C77.3902478 146.7854248 77.3902478 146.7854248 76.77490234 148.13916016 C75.64575195 150.19287109 75.64575195 150.19287109 73.64575195 151.19287109 C69.63403369 133.74641142 65.64772041 116.29482252 61.77075195 98.81787109 C61.61169373 98.10166595 61.4526355 97.38546082 61.28875732 96.64755249 C59.40714724 88.17417887 57.53611483 79.69853673 55.67581177 71.22045898 C54.76692195 67.08165384 53.85470058 62.9435864 52.94207764 58.80560303 C52.49732676 56.78483524 52.05415035 54.76372023 51.61260986 52.74224854 C50.99470579 49.9137267 50.37155511 47.08640644 49.74731445 44.25927734 C49.47280457 42.99300758 49.47280457 42.99300758 49.19274902 41.70115662 C47.89096297 35.7937991 47.89096297 35.7937991 45.64575195 30.19287109 C43.36188392 29.05093708 42.05768103 29.05483772 39.51904297 29.03173828 C38.66798477 29.02213074 37.81692657 29.01252319 36.94007874 29.00262451 C36.01923996 28.99837463 35.09840118 28.99412476 34.1496582 28.98974609 C33.20517319 28.98404602 32.26068817 28.97834595 31.2875824 28.97247314 C29.28776166 28.96301817 27.28792531 28.95648719 25.28808594 28.95263672 C22.22409018 28.94292131 19.16076233 28.91189865 16.09692383 28.88037109 C14.15617261 28.87384214 12.21541659 28.86859125 10.2746582 28.86474609 C9.35584366 28.85239929 8.43702911 28.84005249 7.4903717 28.82733154 C6.63616135 28.83033264 5.78195099 28.83333374 4.90185547 28.83642578 C4.15065933 28.83278015 3.3994632 28.82913452 2.62550354 28.82537842 C0.05926152 29.30173876 -0.78453104 30.13541895 -2.35424805 32.19287109 C-3.13348366 34.9151792 -3.75654981 37.53255666 -4.29956055 40.30224609 C-4.55599586 41.53454956 -4.55599586 41.53454956 -4.81761169 42.79174805 C-5.18717957 44.57237343 -5.55174615 46.35404249 -5.91189575 48.13659668 C-6.88119558 52.93100985 -7.88740132 57.7177057 -8.8894043 62.50537109 C-9.09373581 63.48632751 -9.29806732 64.46728394 -9.5085907 65.47796631 C-11.50117585 75.00056537 -13.69222663 84.47228852 -15.91674805 93.94287109 C-19.14538006 107.73201367 -22.16224675 121.55385825 -25.043396 135.41958618 C-27.10720622 145.34860894 -29.23504413 155.25413879 -31.54174805 165.13037109 C-31.77925781 166.15146973 -32.01676758 167.17256836 -32.26147461 168.22460938 C-33.20695571 172.28465512 -34.15435153 176.34421484 -35.11010742 180.40185547 C-35.84943045 183.55870776 -36.57224539 186.71895061 -37.29174805 189.88037109 C-37.62758911 191.28887329 -37.62758911 191.28887329 -37.97021484 192.72583008 C-39.13269559 197.90131 -39.76958536 202.02587409 -38.35424805 207.19287109 C-34.46217023 209.78758964 -31.17739905 209.5001038 -26.66015625 209.51171875 C-25.77214325 209.52176437 -24.88413025 209.53181 -23.96920776 209.54216003 C-21.03115492 209.5730749 -18.09319354 209.59005024 -15.1550293 209.60693359 C-13.11906645 209.62563856 -11.08311141 209.64521146 -9.04716492 209.6656189 C-3.6861938 209.717017 1.67480248 209.75660163 7.03588867 209.79376221 C12.50551617 209.83375375 17.97503834 209.88486818 23.44458008 209.93505859 C34.17823012 210.03190879 44.91193954 210.11628446 55.64575195 210.19287109 C55.86067543 209.03761681 55.86067543 209.03761681 56.0799408 207.85902405 C56.71390215 204.87174124 57.75779652 202.40488309 59.0246582 199.62646484 C59.77658447 197.96478271 59.77658447 197.96478271 60.54370117 196.26953125 C61.09854086 195.05647303 61.65339145 193.84341979 62.20825195 192.63037109 C63.0841783 190.70005302 63.95814354 188.76885482 64.83197021 186.83758545 C65.45221162 185.46692648 66.07303404 184.0965303 66.69439697 182.72637939 C69.09511281 177.42803312 71.46492028 172.11643545 73.8215332 166.79833984 C74.17133743 166.00912643 74.52114166 165.21991302 74.88154602 164.40678406 C76.26215747 161.29067663 77.64211235 158.17428121 79.02029419 155.05709839 C79.98527548 152.87520674 80.95170409 150.69396599 81.91918945 148.51318359 C82.22761276 147.8176387 82.53603607 147.12209381 82.85380554 146.4054718 C85.3060575 140.90001551 87.84598538 135.43783366 90.4571228 130.00588989 C91.8349987 127.10429914 93.03196908 124.35546299 93.64575195 121.19287109 C92.90325195 121.11037109 92.16075195 121.02787109 91.39575195 120.94287109 C88.00298486 120.01757098 86.71447691 119.02779048 84.64575195 116.19287109 C84.09560507 111.13592825 85.53393526 107.39108432 87.63793945 102.89599609 C88.09694138 101.88372955 88.09694138 101.88372955 88.56521606 100.85101318 C89.21062521 99.43340819 89.86143416 98.01825051 90.51733398 96.60546875 C91.5217053 94.44081641 92.5088333 92.26893252 93.4934082 90.09521484 C94.12392843 88.71585554 94.75540581 87.33693327 95.38793945 85.95849609 C95.68384979 85.30955383 95.97976013 84.66061157 96.28463745 83.99200439 C97.52702556 81.32607542 98.54840716 79.29021589 100.64575195 77.19287109 C105.89176709 76.68844656 109.11926673 77.54322121 113.64575195 80.19287109 C113.8166333 79.64832275 113.98751465 79.10377441 114.16357422 78.54272461 C115.98108711 72.90451629 118.14014097 67.52382943 120.58325195 62.13037109 C120.91776367 61.37949219 121.25227539 60.62861328 121.59692383 59.85498047 C122.59669001 57.62621463 123.61476079 55.40735523 124.64575195 53.19287109 C125.16032959 52.08709717 125.16032959 52.08709717 125.68530273 50.95898438 C126.02416504 50.25370605 126.36302734 49.54842773 126.7121582 48.82177734 C127.0119458 48.194729 127.3117334 47.56768066 127.62060547 46.92163086 C128.76257005 44.99587444 129.94007316 43.64132493 131.64575195 42.19287109 C134.93229112 41.60297945 136.21958194 41.91249608 139.02075195 43.75537109 C140.64575195 46.19287109 140.64575195 46.19287109 140.45849609 49.35131836 C139.55490967 53.62225027 138.1171952 57.16639214 136.2668457 61.09521484 C135.93531998 61.81777969 135.60379425 62.54034454 135.26222229 63.2848053 C134.21105982 65.57069407 133.14741249 67.85050894 132.08325195 70.13037109 C131.36431713 71.68792825 130.64620964 73.24586758 129.92895508 74.80419922 C128.17742393 78.60490952 126.41467905 82.40022793 124.64575195 86.19287109 C125.76079102 86.49837891 126.87583008 86.80388672 128.0246582 87.11865234 C133.14845368 88.6386564 133.14845368 88.6386564 134.64575195 91.19287109 C135.06040765 96.6665796 134.07190714 100.37542368 131.87231445 105.36865234 C131.58850922 106.01988571 131.30470398 106.67111908 131.01229858 107.34208679 C130.41467503 108.70685832 129.81095014 110.068973 129.20141602 111.4284668 C128.26802793 113.51145013 127.35389868 115.60208381 126.44262695 117.69482422 C121.9636109 127.87501215 121.9636109 127.87501215 119.64575195 130.19287109 C114.28757986 130.55008257 110.74454943 129.94705253 105.64575195 128.19287109 C105.34620605 128.86189453 105.04666016 129.53091797 104.73803711 130.22021484 C97.96725107 145.33969209 91.18539687 160.4541921 84.39080811 175.56298828 C83.61067912 177.29791462 82.83076714 179.03293856 82.05108643 180.76806641 C77.63275425 190.59998972 73.1897782 200.41822424 68.64575195 210.19287109 C70.58325195 210.04703776 72.52075195 209.90120443 74.45825195 209.75537109 C75.53719727 209.67416016 76.61614258 209.59294922 77.7277832 209.50927734 C80.705651 209.29074648 80.705651 209.29074648 83.64575195 208.19287109 C83.67329026 206.67214439 83.6923857 205.15126436 83.70825195 203.63037109 C83.71985352 202.78345703 83.73145508 201.93654297 83.7434082 201.06396484 C83.72260305 198.1050577 83.72260305 198.1050577 82.97680664 194.91699219 C82.5914759 190.58230558 83.35565348 188.61346736 85.2512207 184.73583984 C85.67193596 183.85403801 85.67193596 183.85403801 86.10115051 182.954422 C86.99553217 181.08798117 87.91319745 179.23427002 88.83325195 177.38037109 C90.01997581 174.93911977 91.19764485 172.49353253 92.3762207 170.04833984 C92.93873535 168.88737793 93.50125 167.72641602 94.08081055 166.53027344 C96.13171549 162.15650268 97.94478849 157.71287274 99.64575195 153.19287109 C100.30575195 153.19287109 100.96575195 153.19287109 101.64575195 153.19287109 C101.8880957 154.24603516 102.13043945 155.29919922 102.38012695 156.38427734 C102.71854109 157.84133822 103.05709029 159.29836773 103.39575195 160.75537109 C103.55301758 161.44050781 103.7102832 162.12564453 103.87231445 162.83154297 C105.15428703 168.32923304 106.59405462 173.77799223 108.06086731 179.22906494 C109.81881444 185.78755414 111.45234729 192.37501174 113.07955933 198.96691895 C116.41441562 212.49881582 116.41441562 212.49881582 120.08325195 225.94287109 C122.46087881 234.32289224 124.66686333 242.74854776 126.82888794 251.18640137 C127.24320246 252.79528291 127.66209186 254.4029944 128.08590698 256.00939941 C133.7535407 277.5333992 133.7535407 277.5333992 130.14575195 286.50537109 C127.58819587 290.86667726 124.15908026 293.93226861 119.64575195 296.19287109 C116.62788455 296.89937959 113.74134165 297.17853966 110.64575195 297.19287109 C110.72825195 298.40974609 110.81075195 299.62662109 110.89575195 300.88037109 C110.90775592 304.26548849 110.68489089 305.13155343 108.77075195 308.13037109 C104.60626555 312.1723726 100.36888206 311.48204737 94.83325195 311.56787109 C93.93026367 311.60525391 93.02727539 311.64263672 92.09692383 311.68115234 C87.43319759 311.74283278 85.35443866 311.74577279 81.5715332 308.79443359 C78.09438339 304.09710748 78.64575195 304.0751577 78.64575195 297.19287109 C41.35575195 297.19287109 4.06575195 297.19287109 -34.35424805 297.19287109 C-34.35424805 299.83287109 -34.35424805 302.47287109 -34.35424805 305.19287109 C-36.14788716 308.0029057 -37.3730574 309.70227577 -40.35424805 311.19287109 C-43.6177016 311.51017919 -46.88975673 311.51706503 -50.16674805 311.56787109 C-51.06973633 311.60525391 -51.97272461 311.64263672 -52.90307617 311.68115234 C-57.56680241 311.74283278 -59.64556134 311.74577279 -63.4284668 308.79443359 C-66.48261405 304.66854705 -66.44909002 302.31433768 -66.35424805 297.19287109 C-67.17924805 297.29599609 -68.00424805 297.39912109 -68.85424805 297.50537109 C-74.82436989 296.9723245 -79.32077333 293.64322873 -83.22924805 289.19287109 C-87.18465892 283.60876163 -88.11216955 279.00469057 -87.35424805 272.19287109 C-85.36216365 262.33431707 -82.36662552 252.69829233 -79.56884766 243.0456543 C-77.61136324 236.23865212 -75.92369109 229.40079131 -74.34643555 222.49755859 C-71.606032 210.50759826 -68.51310474 198.61232935 -65.16137695 186.7800293 C-63.5361826 180.98811325 -62.14164586 175.16001122 -60.80102539 169.29663086 C-59.80138196 164.9680241 -58.67356713 160.70600144 -57.41674805 156.44287109 C-54.92034729 147.92573909 -52.96297159 139.28735411 -50.93481445 130.64990234 C-49.47700684 124.48027416 -47.92190057 118.33532275 -46.35424805 112.19287109 C-46.06646484 111.06494141 -45.77868164 109.93701172 -45.48217773 108.77490234 C-38.70401545 82.2569474 -38.70401545 82.2569474 -35.79174805 72.00537109 C-33.65744249 64.48128582 -31.74628309 56.90618222 -29.85424805 49.31787109 C-29.40275391 47.51672852 -29.40275391 47.51672852 -28.94213867 45.67919922 C-27.57931605 40.21900138 -26.24261006 34.75748485 -25.0065918 29.26708984 C-20.598407 9.94332492 -20.598407 9.94332492 -11.66674805 3.19287109 C-7.50610171 0.68078274 -4.76428209 0.06355595 0 0 Z " fill="#FCFDFD" transform="translate(234.354248046875,99.80712890625)"/>
<path d="M0 0 C1.40892517 -0.00574036 1.40892517 -0.00574036 2.84631348 -0.01159668 C4.83000766 -0.01431576 6.8137377 -0.00695484 8.79736328 0.00976562 C11.83317016 0.03117539 14.86661046 0.00996393 17.90234375 -0.015625 C19.83073439 -0.01298172 21.75912356 -0.00785675 23.6875 0 C24.59487915 -0.00809692 25.5022583 -0.01619385 26.43713379 -0.02453613 C32.60379795 0.06718871 32.60379795 0.06718871 35.81298828 2.07983398 C37.83942132 5.3250356 38.69131332 8.59173744 39.4921875 12.28515625 C39.75860046 13.43028938 39.75860046 13.43028938 40.03039551 14.59855652 C40.60723927 17.0939664 41.16316511 19.59352898 41.71875 22.09375 C42.11876779 23.84499804 42.51998341 25.59597287 42.92236328 27.34667969 C43.90780889 31.65051441 44.87649847 35.9578859 45.83789062 40.26715088 C46.51042257 43.27723443 47.19293275 46.28503342 47.875 49.29296875 C49.21729601 55.25226285 50.52644166 61.21859691 51.83087158 67.1862793 C53.68096767 75.64524536 55.53781995 84.10273176 57.39483643 92.56018066 C58.1480545 95.99388902 58.89907863 99.42807209 59.64990234 102.86230469 C60.11678796 104.99155269 60.58374449 107.12078515 61.05078125 109.25 C61.26717758 110.24247742 61.48357391 111.23495483 61.70652771 112.25750732 C61.90754593 113.17219788 62.10856415 114.08688843 62.31567383 115.02929688 C62.49076981 115.82944214 62.66586578 116.6295874 62.8462677 117.45397949 C63.35392277 119.70606961 63.35392277 119.70606961 64.34375 122.53125 C66.21696073 118.62341406 68.06393825 114.70373593 69.90625 110.78125 C70.43927734 109.67007813 70.97230469 108.55890625 71.52148438 107.4140625 C72.02099609 106.34414062 72.52050781 105.27421875 73.03515625 104.171875 C73.73427124 102.69509277 73.73427124 102.69509277 74.44750977 101.18847656 C75.4048361 98.35013829 75.51729854 97.2451968 74.34375 94.53125 C73.663125 93.78875 72.9825 93.04625 72.28125 92.28125 C70.1671228 89.28055333 69.77036321 87.32408605 69.9375 83.66796875 C70.64823118 79.92979609 72.41122121 76.77513762 74.34375 73.53125 C75.33375 74.52125 76.32375 75.51125 77.34375 76.53125 C77.01375 77.35625 76.68375 78.18125 76.34375 79.03125 C75.17592191 83.1186483 75.1978615 86.30048344 75.34375 90.53125 C77.99603812 91.60650194 80.62743454 92.62581151 83.34375 93.53125 C82.76705081 98.39747046 81.24331429 102.4337083 79.16796875 106.82421875 C78.68612625 107.86699226 78.68612625 107.86699226 78.19454956 108.93083191 C77.50482985 110.42162877 76.81188048 111.91093492 76.11599731 113.39886475 C74.64615416 116.54233182 73.19255439 119.69321406 71.73820496 122.84387207 C71.00021162 124.44245184 70.26144988 126.0406771 69.52192688 127.6385498 C66.25539747 134.70091264 63.06188889 141.79354848 59.90625 148.90625 C59.47207764 149.88102295 59.03790527 150.8557959 58.59057617 151.86010742 C54.07694169 162.04132035 49.71863394 172.28986554 45.34375 182.53125 C33.565283 182.64708931 21.78695147 182.73593797 10.00803089 182.79031086 C4.53859655 182.81640697 -0.93044813 182.85180588 -6.3996582 182.90844727 C-11.67757816 182.96276563 -16.95512327 182.99267043 -22.23330116 183.00563622 C-24.24718439 183.01487635 -26.26104705 183.0329203 -28.27477074 183.05990028 C-31.09533424 183.09618813 -33.91434813 183.10119545 -36.73510742 183.09887695 C-37.98451866 183.12584152 -37.98451866 183.12584152 -39.25917053 183.15335083 C-43.52562462 183.11539305 -45.19435975 182.8783006 -48.71856689 180.23031616 C-50.65625 177.53125 -50.65625 177.53125 -50.58032227 173.77856445 C-50.29741657 172.35756055 -49.98832224 170.9415747 -49.65625 169.53125 C-49.38415115 168.09812471 -49.11326378 166.66476894 -48.84350586 165.23120117 C-48.52280194 163.67816073 -48.19848871 162.12586245 -47.87109375 160.57421875 C-47.60638023 159.30303192 -47.60638023 159.30303192 -47.33631897 158.00616455 C-46.75927149 155.24287926 -46.17687095 152.48075957 -45.59375 149.71875 C-45.39305908 148.76308136 -45.19236816 147.80741272 -44.9855957 146.82278442 C-42.1802627 133.47148251 -39.24988511 120.15488648 -36.16842651 106.86480713 C-33.37226907 94.80032721 -30.73309109 82.70690068 -28.15625 70.59375 C-24.91821368 55.37426311 -21.6080557 40.17309113 -18.21875 24.98657227 C-18.06211884 24.28420944 -17.90548767 23.58184662 -17.74411011 22.85820007 C-17.30341365 20.89012807 -16.85714873 18.92330548 -16.41064453 16.95654297 C-15.9519655 14.87393236 -15.51877639 12.78520265 -15.13232422 10.68798828 C-13.29291959 0.83846685 -9.10074001 -0.08120971 0 0 Z " fill="#53A0FC" transform="translate(244.65625,127.46875)"/>
<path d="M0 0 C3.53571429 0.53571429 3.53571429 0.53571429 5 2 C5.14393457 6.33530918 5.04212061 10.66157731 5 15 C9.29 15 13.58 15 18 15 C18.495 17.475 18.495 17.475 19 20 C18 21 18 21 15.05859375 21.09765625 C11.70572917 21.06510417 8.35286458 21.03255208 5 21 C5 28.26 5 35.52 5 43 C9.29 43 13.58 43 18 43 C18.495 45.475 18.495 45.475 19 48 C18 49 18 49 15.05859375 49.09765625 C11.70572917 49.06510417 8.35286458 49.03255208 5 49 C5 56.59 5 64.18 5 72 C9.62 72 14.24 72 19 72 C19 73.65 19 75.3 19 77 C18 78 18 78 15.05859375 78.09765625 C11.70572917 78.06510417 8.35286458 78.03255208 5 78 C5 85.26 5 92.52 5 100 C7.124375 99.979375 9.24875 99.95875 11.4375 99.9375 C13.62499611 99.91626217 15.81360547 99.92741054 18 100 C19 101 19 101 19 106 C14.38 106 9.76 106 5 106 C5 113.59 5 121.18 5 129 C9.29 129 13.58 129 18 129 C18.495 131.475 18.495 131.475 19 134 C18 135 18 135 15.05859375 135.09765625 C13.26615234 135.08025391 13.26615234 135.08025391 11.4375 135.0625 C9.64119141 135.04896484 9.64119141 135.04896484 7.80859375 135.03515625 C6.88175781 135.02355469 5.95492188 135.01195312 5 135 C5.01047363 135.65597168 5.02094727 136.31194336 5.03173828 136.98779297 C5.07322503 139.95015658 5.09930262 142.91245916 5.125 145.875 C5.15013672 147.42380859 5.15013672 147.42380859 5.17578125 149.00390625 C5.18222656 149.99003906 5.18867188 150.97617187 5.1953125 151.9921875 C5.20578613 152.90339355 5.21625977 153.81459961 5.22705078 154.75341797 C5 157 5 157 3 159 C-0.53571429 158.46428571 -0.53571429 158.46428571 -2 157 C-2.08700342 155.36527118 -2.10701063 153.72685945 -2.09765625 152.08984375 C-2.09443359 151.10048828 -2.09121094 150.11113281 -2.08789062 149.09179688 C-2.07951172 148.05087891 -2.07113281 147.00996094 -2.0625 145.9375 C-2.05798828 144.89271484 -2.05347656 143.84792969 -2.04882812 142.77148438 C-2.03699927 140.18096546 -2.01906319 137.59047578 -2 135 C-5.96 135 -9.92 135 -14 135 C-14.66 133.68 -15.32 132.36 -16 131 C-14 129 -14 129 -11.1796875 128.8046875 C-6.58984375 128.90234375 -6.58984375 128.90234375 -2 129 C-2 121.41 -2 113.82 -2 106 C-6.29 106 -10.58 106 -15 106 C-15 101 -15 101 -14 100 C-9.99779347 99.85644883 -6.00558317 99.95783597 -2 100 C-2 92.74 -2 85.48 -2 78 C-3.93875 78.04125 -5.8775 78.0825 -7.875 78.125 C-11.1796875 78.1953125 -11.1796875 78.1953125 -14 78 C-14.66 77.34 -15.32 76.68 -16 76 C-15.67 74.68 -15.34 73.36 -15 72 C-8.565 71.505 -8.565 71.505 -2 71 C-1.67 63.74 -1.34 56.48 -1 49 C-5.62 49 -10.24 49 -15 49 C-15.33 47.68 -15.66 46.36 -16 45 C-14 43 -14 43 -11.1796875 42.8046875 C-6.58984375 42.90234375 -6.58984375 42.90234375 -2 43 C-2 35.74 -2 28.48 -2 21 C-4.9390625 21.0309375 -4.9390625 21.0309375 -7.9375 21.0625 C-9.95832876 21.08377188 -11.98035801 21.07244053 -14 21 C-15 20 -15 20 -15.125 17.5 C-15 15 -15 15 -14 14 C-11.98035801 13.92755947 -9.95832876 13.91622812 -7.9375 13.9375 C-6.28041016 13.95103516 -6.28041016 13.95103516 -4.58984375 13.96484375 C-3.73519531 13.97644531 -2.88054687 13.98804688 -2 14 C-2.02320313 13.15695313 -2.04640625 12.31390625 -2.0703125 11.4453125 C-2.08835938 10.34960938 -2.10640625 9.25390625 -2.125 8.125 C-2.14820313 7.03445312 -2.17140625 5.94390625 -2.1953125 4.8203125 C-2 2 -2 2 0 0 Z " fill="#F3F8FD" transform="translate(255,142)"/>
<path d="M0 0 C4.875 4.625 4.875 4.625 6 8 C6.66 8 7.32 8 8 8 C9.29345703 9.5378418 9.29345703 9.5378418 10.7578125 11.69921875 C11.29696289 12.4895752 11.83611328 13.27993164 12.39160156 14.09423828 C12.96362305 14.95001465 13.53564453 15.80579102 14.125 16.6875 C14.71249023 17.55874512 15.29998047 18.42999023 15.90527344 19.32763672 C22.40769252 29.02042818 28.48563273 38.86762485 34.0625 49.125 C34.46952148 49.86057129 34.87654297 50.59614258 35.29589844 51.35400391 C36.27712336 53.19562807 37.14803978 55.09512581 38 57 C37.67 57.99 37.34 58.98 37 60 C34.76773654 57.17799008 33.06621644 54.36148275 31.46875 51.140625 C23.49045706 35.30445087 14.67115137 21.07553458 3.35131836 7.42553711 C0 3.31733072 0 3.31733072 0 0 Z " fill="#77BDF7" transform="translate(451,90)"/>
<path d="M0 0 C4.14485506 2.31465932 7.7266675 5.1008827 11.3125 8.1875 C11.90844971 8.69925781 12.50439941 9.21101563 13.1184082 9.73828125 C18.16171127 14.13838233 22.95305851 18.77096497 27.6875 23.5 C28.37046143 24.18215576 29.05342285 24.86431152 29.75708008 25.56713867 C36.13907164 32.02133378 36.13907164 32.02133378 38 35 C37.67 35.99 37.34 36.98 37 38 C36.55011719 37.40574219 36.10023438 36.81148437 35.63671875 36.19921875 C27.26327662 25.40939251 17.66823416 16.47522775 7 8 C4.59718593 6.0526759 2.28806215 4.08467884 0 2 C0 1.34 0 0.68 0 0 Z " fill="#7BC4FC" transform="translate(411,52)"/>
<path d="M0 0 C3.97197804 1.34489783 6.37769119 3.02958461 9.375 5.9375 C15.79458779 11.90966198 22.87112449 16.91473547 30 22 C29.67 22.99 29.34 23.98 29 25 C21.94639069 19.70393454 15.02612383 14.2858775 8.3125 8.5625 C7.7129248 8.05493164 7.11334961 7.54736328 6.49560547 7.02441406 C3.9121624 4.80195339 1.90219819 2.85329728 0 0 Z " fill="#3296FC" transform="translate(81,442)"/>
<path d="M0 0 C2.63103933 2.37163424 4.19036191 4.86447625 5.8828125 7.96484375 C6.41003906 8.92970703 6.93726563 9.89457031 7.48046875 10.88867188 C8.02316406 11.89478516 8.56585938 12.90089844 9.125 13.9375 C9.67542969 14.93974609 10.22585938 15.94199219 10.79296875 16.97460938 C15.22804507 25.14190593 15.22804507 25.14190593 16 29 C15.34 29.33 14.68 29.66 14 30 C13.71801758 29.43079834 13.43603516 28.86159668 13.14550781 28.27514648 C11.84917609 25.66151453 10.54961249 23.04950207 9.25 20.4375 C8.8065625 19.54224609 8.363125 18.64699219 7.90625 17.72460938 C5.92995619 13.75749017 3.94350023 9.84223187 1.671875 6.03515625 C0 3 0 3 0 0 Z " fill="#6FB2EC" transform="translate(473,120)"/>
<path d="M0 0 C3.40052992 4.21806851 4.87155592 8.61662888 6.625 13.6875 C6.93695313 14.54794922 7.24890625 15.40839844 7.5703125 16.29492188 C9.53371309 21.9100783 10.55514943 27.06665528 11 33 C9.48605198 30.08962696 8.24471353 27.1556521 7.08984375 24.0859375 C6.73986328 23.16039062 6.38988281 22.23484375 6.02929688 21.28125 C5.66900391 20.3221875 5.30871094 19.363125 4.9375 18.375 C4.21836768 16.46579914 3.49835873 14.55692817 2.77734375 12.6484375 C2.30155884 11.38265869 2.30155884 11.38265869 1.81616211 10.09130859 C1.03183661 7.98747765 1.03183661 7.98747765 0 6 C-0.039992 4.00039988 -0.04346799 1.99952758 0 0 Z " fill="#6DB7F5" transform="translate(490,151)"/>
<path d="M0 0 C6.89992268 1.33365749 13.0812731 3.43360277 19.5625 6.125 C20.47580078 6.49753906 21.38910156 6.87007812 22.33007812 7.25390625 C24.55607072 8.16295034 26.77919444 9.0783737 29 10 C29 10.99 29 11.98 29 13 C28.44127197 12.7733667 27.88254395 12.5467334 27.30688477 12.31323242 C24.72656329 11.26848052 22.14454965 10.22797308 19.5625 9.1875 C18.68400391 8.83107422 17.80550781 8.47464844 16.90039062 8.10742188 C11.32603827 5.86533919 5.72491635 3.82430851 0 2 C0 1.34 0 0.68 0 0 Z " fill="#75BAF4" transform="translate(332,11)"/>
<path d="M0 0 C1.58203125 1.11328125 1.58203125 1.11328125 3 3 C2.63671875 5.91796875 2.63671875 5.91796875 1.6875 9.1875 C1.38199219 10.27417969 1.07648438 11.36085937 0.76171875 12.48046875 C0.51035156 13.31191406 0.25898438 14.14335937 0 15 C-1.32 15.33 -2.64 15.66 -4 16 C-4.46450943 9.49686791 -3.32575612 5.5825192 0 0 Z " fill="#6CADFC" transform="translate(319,201)"/>
<path d="M0 0 C0.99 0 1.98 0 3 0 C3.37125 1.134375 3.7425 2.26875 4.125 3.4375 C6.64042305 10.99592096 9.33669543 18.49275638 12 26 C11.34 26.33 10.68 26.66 10 27 C9.61328125 25.96101563 9.2265625 24.92203125 8.828125 23.8515625 C6.18740443 16.77426154 3.53413781 9.71117296 0.6640625 2.72265625 C0 1 0 1 0 0 Z " fill="#3192F1" transform="translate(10,330)"/>
<path d="M0 0 C6.10604339 0.44130406 10.22459587 2.44811172 15.4375 5.5625 C16.16904297 5.98724609 16.90058594 6.41199219 17.65429688 6.84960938 C19.44213758 7.88959514 21.22192662 8.94340177 23 10 C23 10.99 23 11.98 23 13 C11.615 7.06 11.615 7.06 0 1 C0 0.67 0 0.34 0 0 Z " fill="#71B5EB" transform="translate(363,24)"/>
<path d="M0 0 C0.99 0.33 1.98 0.66 3 1 C0.31457202 2.75319503 -2.37371615 4.5019569 -5.0625 6.25 C-5.81466797 6.74113281 -6.56683594 7.23226562 -7.34179688 7.73828125 C-11.81924325 10.64571396 -16.33742697 13.39936166 -21 16 C-19.61060161 12.65821113 -18.20457291 11.15631511 -15.15625 9.23828125 C-14.40472656 8.75939453 -13.65320313 8.28050781 -12.87890625 7.78710938 C-12.09386719 7.30048828 -11.30882813 6.81386719 -10.5 6.3125 C-9.71496094 5.81427734 -8.92992188 5.31605469 -8.12109375 4.80273438 C-2.50167411 1.25083705 -2.50167411 1.25083705 0 0 Z " fill="#58A8FA" transform="translate(127,34)"/>
<path d="M0 0 C3.75050546 0.5529775 6.14527213 1.50229658 9.20703125 3.72265625 C9.95791016 4.26083984 10.70878906 4.79902344 11.48242188 5.35351562 C12.25134766 5.91748047 13.02027344 6.48144531 13.8125 7.0625 C14.99489258 7.91424805 14.99489258 7.91424805 16.20117188 8.78320312 C18.13973082 10.18131534 20.07227224 11.58701082 22 13 C21.01 13.33 20.02 13.66 19 14 C16.9152832 12.93603516 16.9152832 12.93603516 14.55078125 11.2890625 C13.70322266 10.70382813 12.85566406 10.11859375 11.98242188 9.515625 C11.10134766 8.89171875 10.22027344 8.2678125 9.3125 7.625 C8.41982422 7.00882813 7.52714844 6.39265625 6.60742188 5.7578125 C1.86007771 2.45026638 1.86007771 2.45026638 0 1 C0 0.67 0 0.34 0 0 Z " fill="#74BCF8" transform="translate(388,37)"/>
<path d="M0 0 C0.66 0 1.32 0 2 0 C3.14501953 1.52880859 3.14501953 1.52880859 4.3828125 3.6484375 C5.04990234 4.78539062 5.04990234 4.78539062 5.73046875 5.9453125 C6.42076172 7.14800781 6.42076172 7.14800781 7.125 8.375 C7.59292969 9.1690625 8.06085937 9.963125 8.54296875 10.78125 C12 16.7277469 12 16.7277469 12 19 C11.34 19 10.68 19 10 19 C8.85498047 17.47119141 8.85498047 17.47119141 7.6171875 15.3515625 C7.17246094 14.59359375 6.72773437 13.835625 6.26953125 13.0546875 C5.80933594 12.25289063 5.34914063 11.45109375 4.875 10.625 C4.40707031 9.8309375 3.93914063 9.036875 3.45703125 8.21875 C0 2.2722531 0 2.2722531 0 0 Z " fill="#3293F5" transform="translate(31,377)"/>
<path d="M0 0 C0.66 0 1.32 0 2 0 C3.36907416 2.57637588 4.72028455 5.15968104 6.0625 7.75 C6.45244141 8.47960937 6.84238281 9.20921875 7.24414062 9.9609375 C7.60830078 10.66992188 7.97246094 11.37890625 8.34765625 12.109375 C8.68804932 12.75874023 9.02844238 13.40810547 9.37915039 14.07714844 C10.13558044 16.41991018 9.78821819 17.70456573 9 20 C7.68253667 17.41909233 6.37090383 14.83549542 5.0625 12.25 C4.68931641 11.52039063 4.31613281 10.79078125 3.93164062 10.0390625 C3.57392578 9.33007812 3.21621094 8.62109375 2.84765625 7.890625 C2.51773682 7.24125977 2.18781738 6.59189453 1.84790039 5.92285156 C0.98547884 3.96706921 0.45625821 2.08459306 0 0 Z " fill="#2F92F3" transform="translate(21,357)"/>
<path d="M0 0 C4.39654647 2.42596632 8.03340788 5.42239811 11.8125 8.6875 C12.40998047 9.19861328 13.00746094 9.70972656 13.62304688 10.23632812 C15.08483433 11.48761819 16.54280933 12.74335973 18 14 C17.34 14.66 16.68 15.32 16 16 C15.18015625 15.24074219 14.3603125 14.48148438 13.515625 13.69921875 C12.42717284 12.69521546 11.33862618 11.6913146 10.25 10.6875 C9.71117187 10.18798828 9.17234375 9.68847656 8.6171875 9.17382812 C6.33890336 7.07613967 4.12163445 5.08804585 1.609375 3.26953125 C1.07828125 2.85058594 0.5471875 2.43164062 0 2 C0 1.34 0 0.68 0 0 Z " fill="#75BCF8" transform="translate(411,52)"/>
<path d="M0 0 C0.33 0 0.66 0 1 0 C2.23839599 6.65637843 2.09139136 13.2471936 2 20 C1.34 19.67 0.68 19.34 0 19 C-0.19425873 16.20865148 -0.38069517 13.41716313 -0.5625 10.625 C-0.61857422 9.8309375 -0.67464844 9.036875 -0.73242188 8.21875 C-1.11328125 2.2265625 -1.11328125 2.2265625 0 0 Z " fill="#69B8FA" transform="translate(510,220)"/>
<path d="M0 0 C2.23235697 1.24456167 4.46079662 2.4953939 6.6875 3.75 C7.31333984 4.09804688 7.93917969 4.44609375 8.58398438 4.8046875 C12.33744549 6.92706342 15.69859272 9.19727565 19 12 C18.01 12.495 18.01 12.495 17 13 C13.97302906 11.71843623 11.19811593 9.92737083 8.375 8.25 C7.57320313 7.79367187 6.77140625 7.33734375 5.9453125 6.8671875 C5.18734375 6.42117188 4.429375 5.97515625 3.6484375 5.515625 C2.59922119 4.90122559 2.59922119 4.90122559 1.52880859 4.27441406 C1.02430176 3.85385742 0.51979492 3.43330078 0 3 C0 2.01 0 1.02 0 0 Z " fill="#3495FA" transform="translate(116,468)"/>
<path d="M0 0 C0.33 0 0.66 0 1 0 C1.054348 2.0622048 1.09294961 4.12482816 1.125 6.1875 C1.14820313 7.33605469 1.17140625 8.48460937 1.1953125 9.66796875 C1.00484152 12.91740372 0.39360127 15.08660521 -1 18 C-1.33 18 -1.66 18 -2 18 C-2.20190089 11.64012196 -1.6277833 6.14778871 0 0 Z " fill="#64B2FC" transform="translate(511,272)"/>
<path d="M0 0 C-3.56399578 2.37599719 -7.08381174 3.15731805 -11.1875 4.125 C-11.93708984 4.30675781 -12.68667969 4.48851562 -13.45898438 4.67578125 C-15.30470781 5.12251686 -17.15219132 5.5619694 -19 6 C-18.67 5.01 -18.34 4.02 -18 3 C-16.25 2.4140625 -16.25 2.4140625 -14 2 C-11.47621434 1.18300528 -8.95487234 0.36000331 -6.4375 -0.4765625 C-3.86320759 -1.02937529 -2.45852388 -0.85365413 0 0 Z " fill="#41A0F9" transform="translate(334,500)"/>
<path d="M0 0 C4.9723422 1.49170266 9.41845739 3.60457417 14 6 C14 6.66 14 7.32 14 8 C10.2397015 7.41892368 7.46964968 6.34800504 4.1875 4.4375 C3.39730469 3.98246094 2.60710937 3.52742188 1.79296875 3.05859375 C1.20128906 2.70925781 0.60960937 2.35992187 0 2 C0 1.34 0 0.68 0 0 Z " fill="#3391F6" transform="translate(135,480)"/>
<path d="M0 0 C1.07310858 3.27185553 0.89263102 5.42947592 0.0625 8.75 C-0.13214844 9.54921875 -0.32679687 10.3484375 -0.52734375 11.171875 C-0.76130859 12.07679688 -0.76130859 12.07679688 -1 13 C-1.66 13 -2.32 13 -3 13 C-3 15.31 -3 17.62 -3 20 C-5 17 -5 17 -4.35546875 13.49609375 C-3.97944177 12.13947345 -3.58955983 10.7866341 -3.1875 9.4375 C-2.99607422 8.75236328 -2.80464844 8.06722656 -2.60742188 7.36132812 C-1.8849005 4.81375276 -1.18695186 2.37390371 0 0 Z " fill="#3F99EC" transform="translate(12,176)"/>
<path d="M0 0 C3 1 3 1 4.421875 3.1796875 C4.86015625 4.06914062 5.2984375 4.95859375 5.75 5.875 C6.19859375 6.75929687 6.6471875 7.64359375 7.109375 8.5546875 C8 11 8 11 7 14 C3.94998169 10.33997803 0 4.92148529 0 0 Z " fill="#72B9F5" transform="translate(481,136)"/>
<path d="M0 0 C2 1 2 1 2.66796875 2.890625 C4.38738561 10.6991046 4.38738561 10.6991046 3 15 C0.23751131 9.84335444 -0.1129027 5.87094034 0 0 Z " fill="#2F8BF7" transform="translate(3,296)"/>
<path d="M0 0 C5.02692063 0.45699278 8.14896261 2.99241748 12 6 C11.67 6.99 11.34 7.98 11 9 C9.16384919 7.69144447 7.33114211 6.37805538 5.5 5.0625 C4.4790625 4.33160156 3.458125 3.60070312 2.40625 2.84765625 C1.6121875 2.23792969 0.818125 1.62820313 0 1 C0 0.67 0 0.34 0 0 Z " fill="#2F8BF1" transform="translate(99,458)"/>
<path d="M0 0 C0.99 0.495 0.99 0.495 2 1 C2.6328125 3.109375 2.6328125 3.109375 3.125 5.75 C3.29257813 6.61109375 3.46015625 7.4721875 3.6328125 8.359375 C3.9923991 10.94533821 4.06564041 13.39313809 4 16 C0.78235549 11.17353323 -0.36261136 5.80178176 0 0 Z " fill="#3395F5" transform="translate(6,311)"/>
<path d="M0 0 C1.37095624 3.69037278 0.60010967 5.70883835 -0.9375 9.25 C-1.31777344 10.14203125 -1.69804687 11.0340625 -2.08984375 11.953125 C-2.39019531 12.62859375 -2.69054687 13.3040625 -3 14 C-3.33 14 -3.66 14 -4 14 C-4.19622241 9.78121808 -3.80230168 6.82989106 -2 3 C-1.34 3 -0.68 3 0 3 C0 2.01 0 1.02 0 0 Z " fill="#5DAAEC" transform="translate(499,334)"/>
<path d="M0 0 C3.3 1.65 6.6 3.3 10 5 C10 5.99 10 6.98 10 8 C6.37 6.02 2.74 4.04 -1 2 C-0.67 1.34 -0.34 0.68 0 0 Z " fill="#78BEF7" transform="translate(376,29)"/>
<path d="M0 0 C-2.3129482 2.3129482 -3.47904875 2.49580975 -6.625 3.125 C-7.44226563 3.29257813 -8.25953125 3.46015625 -9.1015625 3.6328125 C-10.04128906 3.81457031 -10.04128906 3.81457031 -11 4 C-11.33 3.34 -11.66 2.68 -12 2 C-10.56656 1.46809459 -9.12804633 0.94984742 -7.6875 0.4375 C-6.48673828 0.00244141 -6.48673828 0.00244141 -5.26171875 -0.44140625 C-3 -1 -3 -1 0 0 Z " fill="#5FACF6" transform="translate(187,10)"/>
<path d="M0 0 C3.48872415 1.16290805 4.09976864 2.13967609 6.1875 5.0625 C6.71730469 5.79597656 7.24710938 6.52945312 7.79296875 7.28515625 C8.19128906 7.85105469 8.58960938 8.41695313 9 9 C8.67 9.66 8.34 10.32 8 11 C6.66072279 9.54712339 5.32873153 8.08752741 4 6.625 C3.2575 5.81289063 2.515 5.00078125 1.75 4.1640625 C0 2 0 2 0 0 Z " fill="#3092FA" transform="translate(54,412)"/>
<path d="M0 0 C2.96052484 3.36423277 3.92289822 6.69159287 5 11 C2 10 2 10 0.8125 8.3125 C-0.19313465 5.45030907 -0.13689641 3.01172092 0 0 Z " fill="#6BABDE" transform="translate(490,151)"/>
<path d="M0 0 C0.66 0 1.32 0 2 0 C1.53199289 4.05606165 1.12046792 7.46588679 -1 11 C-2.26264601 6.70700357 -1.62950412 4.12168689 0 0 Z " fill="#68B4E8" transform="translate(502,321)"/>
<path d="M0 0 C0.33 0 0.66 0 1 0 C2.20577428 4.94367454 1.6290678 8.20862412 0 13 C-0.66 13 -1.32 13 -2 13 C-1.48041715 8.62065881 -0.94324258 4.31196609 0 0 Z " fill="#61ADFA" transform="translate(505,307)"/>
<path d="M0 0 C0.66 0.33 1.32 0.66 2 1 C1.01 2.485 1.01 2.485 0 4 C-0.66 4 -1.32 4 -2 4 C-2.33 4.99 -2.66 5.98 -3 7 C-5.0625 8.1875 -5.0625 8.1875 -7 9 C-5.44499019 5.18315774 -2.96404505 2.80804268 0 0 Z " fill="#53A9FA" transform="translate(90,60)"/>
<path d="M0 0 C3.3 0.66 6.6 1.32 10 2 C9.67 2.66 9.34 3.32 9 4 C5.7 3.34 2.4 2.68 -1 2 C-0.67 1.34 -0.34 0.68 0 0 Z " fill="#74BAF6" transform="translate(322,8)"/>
<path d="M0 0 C0.66 0 1.32 0 2 0 C1.47731534 2.76276177 0.89130413 5.3260876 0 8 C-0.99 8.33 -1.98 8.66 -3 9 C-2.01 6.03 -1.02 3.06 0 0 Z " fill="#5AABF2" transform="translate(493,348)"/>
<path d="M0 0 C0.66 0 1.32 0 2 0 C2.33 2.97 2.66 5.94 3 9 C2.34 9 1.68 9 1 9 C0.67 6.03 0.34 3.06 0 0 Z " fill="#68B4F8" transform="translate(507,210)"/>
<path d="M0 0 C0.66 0 1.32 0 2 0 C2.20140476 3.62528568 1.85776765 5.86501708 0 9 C-0.66 9 -1.32 9 -2 9 C-1.34 6.03 -0.68 3.06 0 0 Z " fill="#3389EB" transform="translate(5,201)"/>
<path d="M0 0 C2.09350689 3.4019487 2.17942163 6.05272412 2 10 C1.34 9.67 0.68 9.34 0 9 C-0.44921875 7.1875 -0.44921875 7.1875 -0.6875 5 C-0.77386719 4.278125 -0.86023438 3.55625 -0.94921875 2.8125 C-0.96597656 2.214375 -0.98273438 1.61625 -1 1 C-0.67 0.67 -0.34 0.34 0 0 Z " fill="#68B1F3" transform="translate(506,199)"/>
<path d="M0 0 C2.83374881 3.20336822 3.5205537 5.78087253 4 10 C0.06153846 5.69230769 0.06153846 5.69230769 -0.25 2.1875 C-0.1675 1.465625 -0.085 0.74375 0 0 Z " fill="#3695FB" transform="translate(27,367)"/>
<path d="M0 0 C0.66 1.32 1.32 2.64 2 4 C2.66 3.67 3.32 3.34 4 3 C3.67 4.65 3.34 6.3 3 8 C2.01 8 1.02 8 0 8 C0 5.36 0 2.72 0 0 Z " fill="#73B1FB" transform="translate(315,209)"/>
<path d="M0 0 C2.46800047 1.15173355 4.04783565 2.04783565 6 4 C5.67 4.99 5.34 5.98 5 7 C3.29115995 5.37660195 1.62553283 3.70680947 0 2 C0 1.34 0 0.68 0 0 Z " fill="#3297FC" transform="translate(63,423)"/>
<path d="M0 0 C0.33 0.99 0.66 1.98 1 3 C-0.9375 6.1875 -0.9375 6.1875 -3 9 C-3.75 7.3125 -3.75 7.3125 -4 5 C-2.0625 2.25 -2.0625 2.25 0 0 Z " fill="#55A9F2" transform="translate(469,395)"/>
<path d="M0 0 C0.6875 1.75 0.6875 1.75 1 4 C-0.3125 6.25 -0.3125 6.25 -2 8 C-2.66 8 -3.32 8 -4 8 C-2.87548273 5.0280615 -1.77706209 2.66559313 0 0 Z " fill="#5AADFA" transform="translate(478,380)"/>
<path d="M0 0 C0.66 0 1.32 0 2 0 C1.25 4.75 1.25 4.75 -1 7 C-1.33 5.35 -1.66 3.7 -2 2 C-1.34 2 -0.68 2 0 2 C0 1.34 0 0.68 0 0 Z " fill="#55A2FC" transform="translate(318,207)"/>
<path d="M0 0 C0 0.66 0 1.32 0 2 C-2.64 2.66 -5.28 3.32 -8 4 C-8 3.34 -8 2.68 -8 2 C-4.91190305 0.23537317 -3.76687864 0 0 0 Z " fill="#62ADF5" transform="translate(175,13)"/>
</svg>
